<svg xmlns="http://www.w3.org/2000/svg" version="1.1" xmlns:xlink="http://www.w3.org/1999/xlink" xmlns:svgjs="http://svgjs.com/svgjs" width="1440" height="560" preserveAspectRatio="none" viewBox="0 0 1440 560" >
    <g mask="url(&quot;#SvgjsMask1001&quot;)" fill="none">
        <path d="M621.1 604.53C798.32 568.48 873.39 115.62 1150.78 111.82 1428.17 108.02 1541.97 272.41 1680.46 274.22" stroke="rgba(5,150,105,0.5)" stroke-width="2"></path>
        <path d="M169.51 592.72C301.45 580.02 384.12 302.82 612.36 301.15 840.6 299.48 833.78 371.15 1055.21 371.15 1276.64 371.15 1385.97 301.37 1498.06 301.15" stroke="rgba(6,78,59,0.5)" stroke-width="2"></path>
        <path d="M592.49 592.99C781.5 551.96 862.43 59.02 1150.18 56.8 1437.93 54.58 1554.98 303.04 1707.87 308.8" stroke="rgba(5,150,105,0.5)" stroke-width="2"></path>
        <path d="M639.17 605.89C780.66 542.64 717.32 97.43 990.14 94.87 1262.96 92.31 1507.9 316.18 1692.08 318.87" stroke="rgba(5,150,105,0.5)" stroke-width="2"></path>
        <path d="M494.48 642.6C600.26 620.98 547.01 360.19 810.34 348.06 1073.68 335.93 1278.66 181.49 1442.07 180.06" stroke="rgba(5,150,105,0.5)" stroke-width="2"></path>
    </g>
    <defs>
        <mask id="SvgjsMask1001">
            <rect width="1440" height="560" fill="#ffffff"></rect>
        </mask>
    </defs>
</svg>